<svg width="36" height="36" viewBox="0 0 36 36" fill="none" xmlns="http://www.w3.org/2000/svg">
  <rect width="36" height="36" rx="8" fill="#4F46E5"/>
  <path d="M18 8C14.5 8 11.3 9.2 9 11.2V16.5C9 20.1 11.1 23.3 14.2 24.9L18 27L21.8 24.9C24.9 23.3 27 20.1 27 16.5V11.2C24.7 9.2 21.5 8 18 8Z" fill="white"/>
  <path d="M18 13C16.3 13 15 14.3 15 16V20C15 21.7 16.3 23 18 23C19.7 23 21 21.7 21 20V16C21 14.3 19.7 13 18 13Z" fill="#4F46E5"/>
  <path d="M24 15C23.4477 15 23 15.4477 23 16V20C23 20.5523 23.4477 21 24 21C24.5523 21 25 20.5523 25 20V16C25 15.4477 24.5523 15 24 15Z" fill="#4F46E5"/>
  <path d="M12 15C11.4477 15 11 15.4477 11 16V20C11 20.5523 11.4477 21 12 21C12.5523 21 13 20.5523 13 20V16C13 15.4477 12.5523 15 12 15Z" fill="#4F46E5"/>
</svg>